Coordinates
version=1
nRows=15
nColumns=34
inDegrees=no

Units are S.I. units (second, meters, Newtons, ...)
If the header above contains a line with 'inDegrees', this indicates whether rotational values are in degrees (yes) or radians (no).

endheader
time	pelvis_tilt	pelvis_list	pelvis_rotation	pelvis_tx	pelvis_ty	pelvis_tz	hip_flexion_r	hip_adduction_r	hip_rotation_r	knee_angle_r	ankle_angle_r	subtalar_angle_r	mtp_angle_r	hip_flexion_l	hip_adduction_l	hip_rotation_l	knee_angle_l	ankle_angle_l	subtalar_angle_l	mtp_angle_l	lumbar_extension	lumbar_bending	lumbar_rotation	arm_flex_r	arm_add_r	arm_rot_r	elbow_flex_r	pro_sup_r	arm_flex_l	arm_add_l	arm_rot_l	elbow_flex_l	pro_sup_l
0.9	-0.141203	0.183568	-0.0962857	0.982718	0.92928	-0.233844	0.689047	-0.163519	0.141812	1.07906	0.185124	-0.325948	-0.00467881	0.175368	0.252235	-0.182663	0.183795	0.346169	0.191781	-0.00929893	0.1027	-0.167707	-0.0315921	-0.25636	-0.143868	-0.225695	0.470435	1.6511	-0.0451475	-0.207867	-0.319146	0.711813	1.9318
0.91	-0.142614	0.177063	-0.0924381	0.993461	0.929042	-0.234026	0.701416	-0.155146	0.135741	1.02813	0.194367	-0.319687	-0.00470608	0.160248	0.247808	-0.176581	0.180015	0.355953	0.197758	-0.00927156	0.100295	-0.160517	-0.0391227	-0.264797	-0.146121	-0.233276	0.464626	1.64997	-0.0289741	-0.213232	-0.317824	0.724253	1.93448
0.92	-0.143808	0.170345	-0.0882552	1.00426	0.928718	-0.234199	0.710411	-0.147573	0.127553	0.971752	0.20397	-0.306386	-0.00473336	0.144967	0.243009	-0.170853	0.176632	0.365723	0.204208	-0.00924419	0.0977309	-0.153272	-0.0465619	-0.272598	-0.148442	-0.23983	0.458583	1.64952	-0.0131394	-0.21807	-0.317301	0.736574	1.93721
0.93	-0.144622	0.163355	-0.0836758	1.01513	0.928319	-0.234364	0.715769	-0.140746	0.117061	0.910215	0.214299	-0.284994	-0.00476062	0.129373	0.23777	-0.165614	0.17372	0.375609	0.211335	-0.00921683	0.0947777	-0.145932	-0.0540251	-0.279732	-0.150766	-0.245688	0.452482	1.64984	0.00229777	-0.222403	-0.31735	0.748843	1.94002
0.94	-0.144886	0.15601	-0.07866	1.02606	0.927858	-0.23452	0.717285	-0.134518	0.104153	0.843981	0.225528	-0.254828	-0.00478789	0.113327	0.231958	-0.161086	0.171412	0.385782	0.219448	-0.00918947	0.0912095	-0.138433	-0.0616005	-0.286185	-0.153024	-0.251156	0.446473	1.65092	0.0172791	-0.226268	-0.317745	0.761132	1.94286
0.95	-0.144445	0.148224	-0.0731881	1.03707	0.927344	-0.234663	0.714862	-0.128656	0.088807	0.773732	0.237643	-0.215733	-0.00481514	0.0967361	0.225395	-0.157556	0.169896	0.396418	0.228913	-0.00916211	0.0868415	-0.130689	-0.0693439	-0.291954	-0.155153	-0.256478	0.440661	1.65265	0.0317427	-0.229721	-0.31826	0.773514	1.94561
0.96	-0.143189	0.139916	-0.0672597	1.04817	0.926785	-0.234784	0.708571	-0.122871	0.0711148	0.700416	0.250462	-0.168207	-0.0048424	0.079569	0.21788	-0.155325	0.169387	0.407666	0.24008	-0.00913476	0.0815599	-0.122616	-0.0772737	-0.297055	-0.157094	-0.261809	0.435093	1.65488	0.0456216	-0.23283	-0.318657	0.78605	1.94811
0.97	-0.141068	0.131037	-0.060896	1.05937	0.926181	-0.234876	0.698682	-0.116853	0.0512865	0.625284	0.263686	-0.113474	-0.00486964	0.0618696	0.209229	-0.154643	0.170099	0.4196	0.253198	-0.00910741	0.0753449	-0.114139	-0.0853663	-0.301518	-0.158804	-0.267208	0.429767	1.65739	0.0588423	-0.235673	-0.318692	0.79878	1.95015
0.98	-0.138098	0.12158	-0.0541431	1.07067	0.925527	-0.234927	0.685685	-0.110314	0.0296509	0.549886	0.276951	-0.0534667	-0.00489689	0.0437495	0.199312	-0.155655	0.1722	0.432201	0.268332	-0.00908007	0.0682787	-0.105213	-0.0935513	-0.305384	-0.160259	-0.272639	0.424636	1.65994	0.0713257	-0.238328	-0.318126	0.811718	1.95153
0.99	-0.134348	0.111592	-0.047082	1.08209	0.924819	-0.234929	0.670267	-0.103028	0.00664335	0.476034	0.289894	0.00928326	-0.00492412	0.0253644	0.188091	-0.158359	0.175767	0.445328	0.285304	-0.00905274	0.0605376	-0.095832	-0.101712	-0.308703	-0.161452	-0.277995	0.419629	1.66232	0.0829874	-0.240862	-0.316745	0.824841	1.95213
1	-0.129939	0.101162	-0.0398367	1.09364	0.924052	-0.23488	0.653254	-0.0948694	-0.0172245	0.405708	0.302199	0.0718699	-0.00495135	0.00687505	0.175642	-0.16259	0.180767	0.458725	0.303686	-0.00902541	0.05236	-0.0860432	-0.109687	-0.311527	-0.162406	-0.283121	0.414666	1.6643	0.0937395	-0.243316	-0.314376	0.838094	1.95188
1.01	-0.125025	0.0904246	-0.0325731	1.10533	0.923223	-0.234777	0.635521	-0.0858245	-0.0414103	0.340932	0.313627	0.131314	-0.00497858	-0.0115919	0.162159	-0.16804	0.187033	0.472037	0.322832	-0.00899809	0.0440086	-0.0759315	-0.117282	-0.313905	-0.163167	-0.287845	0.409675	1.66574	0.10349	-0.245698	-0.310914	0.851391	1.95083
1.02	-0.11976	0.0795384	-0.0254885	1.11717	0.922334	-0.234622	0.6179	-0.0759892	-0.0653961	0.283592	0.323998	0.184899	-0.0050058	-0.0299724	0.147931	-0.174298	0.194282	0.484838	0.341948	-0.00897077	0.0357365	-0.0656027	-0.124284	-0.315875	-0.163803	-0.292001	0.404604	1.66653	0.112139	-0.247975	-0.306336	0.864628	1.94911
1.03	-0.11428	0.0686641	-0.0187931	1.12918	0.921391	-0.234416	0.60108	-0.0655411	-0.0887405	0.235261	0.333135	0.230478	-0.00503303	-0.048276	0.133302	-0.180906	0.202146	0.49667	0.360186	-0.00894345	0.0277612	-0.0551577	-0.130488	-0.317467	-0.164406	-0.29545	0.399423	1.66662	0.119581	-0.250073	-0.300706	0.877693	1.9469
1.04	-0.108686	0.0579296	-0.0126861	1.14136	0.920402	-0.234166	0.585543	-0.0546935	-0.111107	0.197021	0.340778	0.266684	-0.00506024	-0.0665757	0.118608	-0.187422	0.210234	0.507081	0.376751	-0.00891614	0.0202484	-0.0446636	-0.135729	-0.318695	-0.165078	-0.298092	0.394132	1.66604	0.125695	-0.251885	-0.294171	0.890477	1.94443
